# xmcd
#
# Track frame offsets:
#	150
#	16836
#	28998
#	41664
#	50028
#	62859
#	74723
#	90007
#	100813
#	132232
#	149823
#	176106
#	205359
#	227782
#	263557
#	291644
#
# Disc length: 4364 seconds
#
# Revision: 0
# Processed by: cddbd v1.5.1PL0 Copyright (c) Steve Scherf et al.
# Submitted via: EasyCDDAExtractor 8.2.1.1
#
DISCID=fc110a10
DTITLE=Lucio Battisti - Inediti Vol. 2
DYEAR=1970
DGENRE=Pop
TTITLE0=Una giornata uggiosa
TTITLE1=Arrivederci a questa sera
TTITLE2=Orgoglio e dignità 
TTITLE3=Orgoglio e dignità  (2° versione)
TTITLE4=Questo amore
TTITLE5=Gelosa cara
TTITLE6=Il monolocale
TTITLE7=Per una lira
TTITLE8=Baby it's you
TTITLE9=Baby it's you (2° versione)
TTITLE10=Day by day
TTITLE11=The pain is gone
TTITLE12=A woman as a friend
TTITLE13=Take it as it comes
TTITLE14=Afrai of fallin'
TTITLE15=I think of you
EXTD=
EXTT0=
EXTT1=
EXTT2=
EXTT3=
EXTT4=
EXTT5=
EXTT6=
EXTT7=
EXTT8=
EXTT9=
EXTT10=
EXTT11=
EXTT12=
EXTT13=
EXTT14=
EXTT15=
PLAYORDER=
